# xmcd
#
# Track frame offsets:
#	150
#	14596
#	28361
#	45238
#	61983
#	77023
#	92655
#	106787
#	123900
#	138111
#	164818
#
# Disc length: 2203 seconds
#
# Revision: 1
# Processed by: cddbd v1.5.1PL2 Copyright (c) Steve Scherf et al.
# Submitted via: audiograbber 1.81.02
#
DISCID=8808990b
DTITLE=diverse - Hit auf Hit Folge 16
DYEAR=2005
DGENRE=
TTITLE0=Kastelruther Spatzen - Zufall oder Schicksal
TTITLE1=Zillertaler - Sommer auf der Alm
TTITLE2=Tommy Steiner - Wie kannst du denn einfach so ...
TTITLE3=Oliver Haidt - Bleib doch heut' Nacht
TTITLE4=Pro Secco - Sara
TTITLE5=Angelina - Nur für dich
TTITLE6=Marcel - Rote Rosen für Mama
TTITLE7=Oswald Sattler - Meine Heimat ist Südtirol
TTITLE8=Reiner Kirsten - Bella Napoli
TTITLE9=Bergfeuer - Easy Rider
TTITLE10=daten - Daten-CD
EXTD=
EXTT0=
EXTT1=
EXTT2=
EXTT3=
EXTT4=
EXTT5=
EXTT6=
EXTT7=
EXTT8=
EXTT9=
EXTT10=
PLAYORDER=
